<svg width="21" height="20" viewBox="0 0 21 20" fill="none" xmlns="http://www.w3.org/2000/svg">
<path fill-rule="evenodd" clip-rule="evenodd" d="M12.9382 9.99019C12.9382 10.5201 12.7277 11.0283 12.353 11.403C11.9783 11.7777 11.4701 11.9882 10.9402 11.9882C10.4103 11.9882 9.90214 11.7777 9.52744 11.403C9.15274 11.0283 8.94224 10.5201 8.94224 9.99019C8.94224 9.46028 9.15274 8.95208 9.52744 8.57739C9.90214 8.20269 10.4103 7.99219 10.9402 7.99219C11.4701 7.99219 11.9783 8.20269 12.353 8.57739C12.7277 8.95208 12.9382 9.46028 12.9382 9.99019ZM18.9322 9.99019C18.9322 10.5201 18.7217 11.0283 18.347 11.403C17.9723 11.7777 17.4641 11.9882 16.9342 11.9882C16.4043 11.9882 15.8961 11.7777 15.5214 11.403C15.1467 11.0283 14.9362 10.5201 14.9362 9.99019C14.9362 9.46028 15.1467 8.95208 15.5214 8.57739C15.8961 8.20269 16.4043 7.99219 16.9342 7.99219C17.4641 7.99219 17.9723 8.20269 18.347 8.57739C18.7217 8.95208 18.9322 9.46028 18.9322 9.99019ZM6.94424 9.99019C6.94424 10.5201 6.73374 11.0283 6.35904 11.403C5.98435 11.7777 5.47614 11.9882 4.94624 11.9882C4.41634 11.9882 3.90814 11.7777 3.53344 11.403C3.15874 11.0283 2.94824 10.5201 2.94824 9.99019C2.94824 9.46028 3.15874 8.95208 3.53344 8.57739C3.90814 8.20269 4.41634 7.99219 4.94624 7.99219C5.47614 7.99219 5.98435 8.20269 6.35904 8.57739C6.73374 8.95208 6.94424 9.46028 6.94424 9.99019Z" fill="#B0B3B8"/>
</svg>
