<svg xmlns="http://www.w3.org/2000/svg" viewBox="0 0 797.01131 469.69253"><defs><style>.cls-1{fill:#070707;}.cls-2{fill:#a8d5f9;}.cls-3{fill:#2b69da;}.cls-4{fill:#b0d9f9;}.cls-5{fill:#11223f;}.cls-6{fill:#fefefe;}</style></defs><g id="Layer_2" data-name="Layer 2"><g id="Layer_1-2" data-name="Layer 1"><path class="cls-1" d="M283.54424,322.4a19.61721,19.61721,0,0,0,3.34556.11573c2.26471-.29484,2.974.472,2.984,2.81934.01,2.34922-.97846,2.57685-2.87344,2.50519-3.22913-.12208-6.46631-.03969-9.7001-.03031-3.68369.01065-1.697,2.8245-2.004,4.36246-.27755,1.39016-.75095,3.228,2.06745,3.16383,8.57443-.19534,17.15412-.1562,25.73157-.20828,12.93344.05094,25.86716.0861,38.80052.17632,1.35378.00942,3.1057-.72133,3.73817,1.37887-1.7899,6.91645-5.2426,9.93049-12.53466,10.66234a41.74975,41.74975,0,0,1-7.84914.13544c-2.78752-.2498-3.49946.59087-3.485,3.43042.12626,24.714.06162,49.42892.07164,74.14359.00352,8.70928,4.30906,13.01513,13.13062,13.09917,5.2441.05,10.48935-.01431,15.72678-.02716,4.71173.526,9.434.10773,14.155.04847l38.72092-.242c5.7913.85768,11.61476.25981,17.42152.33965a47.513,47.513,0,0,0,18.59587-3.00087c26.06214-9.69006,39.02212-37.94109,28.18056-63.42954-11.238-26.42071-23.45268-52.42673-35.29691-78.58849a12.67085,12.67085,0,0,0-2.80056-3.93679c-2.52255-2.36043-5.54709-4.001-9.0955-2.99086-6.05339,1.72328-9.1386-.80441-8.62192-7.36456,3.07739-3.72307,5.261-4.03977,10.284-1.49132.53873,2.34992,1.72013,3.44675,4.41213,3.22457,2.11979-.175,4.31327.5419,6.607.88238.05449-1.13881.10742-2.24539.16035-3.352q.708.0542,1.416.10847c.20779,2.08031-1.15079,4.574,1.58165,5.98765,1.61134,2.13107,2.41294,4.82836,4.59064,6.56413q.0621.7219.12416,1.44376,3.67341,5.66355,7.34687,11.327,15.94422,26.24066,31.88643,52.48251,7.05024,11.61189,14.06928,23.24279c-7.71,3.10983-14.36893,7.43791-17.92246,15.34071,1.68929-1.68958,3.13118-3.62553,4.70025-5.45239,4.00625-4.66443,9.48779-7.02166,14.94755-9.39718,9.16335-1.49428,18.1372-1.35468,26.55037,3.22927A30.75753,30.75753,0,0,1,535.526,396.79045c.84268,1.67066.7649,2.57375-.98112,3.52554-3.49021,1.90257-6.85672,4.03167-10.4571,6.176,1.09585,1.28975,2.09645,2.46734,3.097,3.64483-2.15693,2.84037-6.9452,1.9253-8.37391,5.83576-.01592.04362-.63032-.01587-.65356-.10691-.91222-3.56577-1.94027-.2707-2.63033.06447-3.79316,1.84222-7.41659,4.01659-11.82708,4.25336-.65465.03516-2.11832-.19448-2.39207,1.604-.46581,3.05958-2.70985,3.85764-5.11684,1.97725-1.14233-.89249-1.85023-.22041-2.64094.25748-1.271.76824-2.41889,1.74578-3.71017,2.47292-4.59064,2.58489-9.42338,4.75986-13.56349,8.09842-3.34044,1.92754-6.80384,3.67231-9.99642,5.81952-7.19792,4.84116-15.025,6.51694-23.67858,6.47647q-64.76243-.30276-129.52637.03791c-9.15058.06186-16.05164-2.94221-21.86824-9.80785-3.59195-4.23978-6.90046-8.8519-11.63365-12.02863a.46579.46579,0,0,0-.44677-.39c-4.19067-3.31076-8.77668-5.71362-14.20589-6.18021-.50437-.30445-1.01108-.87758-1.51275-.87314-7.86629.06882-15.74032-.46586-23.59875.25273-1.71514-.03453-3.43376-.15552-5.14487-.088-6.38.2515-12.77649-.62631-19.14513.28744l-1.90664-.33664-.97274.03686-2.41445.021q-6.04156-.10818-12.08331-.21647c1.13131-8.20213,5.15508-15.1125,9.84852-21.73067-5.65676,6.21478-9.96875,13.078-10.78448,21.65833-6.71944.51035-6.85224.48758-5.73452-6.03009,3.85139-22.4579,15.57768-39.75793,34.55733-52.24.92659-.60935,1.87577-1.18435,2.86562-1.80756-4.08677-6.67784-9.37433-12.36174-12.5998-19.46594-1.18955-2.62-.97028-5.06028-1.0238-7.59863-.03962-1.876-.5132-2.72848-2.53541-2.6155-2.48554.13883-4.98709-.032-7.47752.053-1.91.06511-3.25027.0807-3.20686-2.62683.04191-2.61074,1.23671-2.83256,3.22895-2.67188a26.1,26.1,0,0,0,2.98273-.08441q16.67772.01215,33.35988.02337a13.73458,13.73458,0,0,0,8.96274-.01248Q267.06471,322.42757,283.54424,322.4Zm-13.93712,76.838c.72031,1.01489,1.45026,2.02311,2.15927,3.04582,2.78963,4.02394,8.01818,19.45689,6.4557,19.038l.23976-.05154c1.39838-5.20885-2.768-16.45108-8.31975-22.44921a19.81151,19.81151,0,0,0-1.43182-2.13893,41.53645,41.53645,0,0,0-50.8229-8.83475c-3.46436,1.94-6.71778,4.14462-9.08049,7.412a2.87226,2.87226,0,0,0,1.63522-.76354C229.44875,378.645,253.18657,380.54606,269.60712,399.238ZM247.50786,349.65c-2.91466.25606-3.91032-.75087-3.77618-3.70085.28139-6.19045,4.41075-10.456,11.02538-10.64345a112.81437,112.81437,0,0,1,11.59518.04852c3.0584.22895,3.76273-.86779,3.66524-3.73519-.08829-2.59619-.22906-3.97063-3.54067-3.906-11.97059.23371-23.94849.092-35.92365.092-6.51682,0-6.50762.00073-7.01346,6.57263a5.098,5.098,0,0,1-.47665,2.15014,3.15831,3.15831,0,0,0,.37408,3.76815q4.61244,6.57339,9.21491,13.15382c.59056.844,1.17394,1.66448,2.40488,1.04013A104.65389,104.65389,0,0,1,247.50786,349.65Z"/><path class="cls-2" d="M144.80255,401.85687c4.39456,2.11694,9.23238,1.5454,13.856,2.14336,13.33758,1.7247,22.43386,8.81514,27.54607,21.06252,2.24166,5.37036,3.17,11.252,6.2636,16.31249,6.44326,10.53947,16.634,14.79236,28.15512,16.83317q-.00336.52984-.007,1.06272c-1.36869.061-2.73734.17513-4.106.17536q-90.21034.01331-180.42048-.08276c-6.01223-.01491-12.23334.1101-17.94629-2.553C7.459,451.82993,1.68759,443.41261.25943,431.74632-1.3232,418.818,4.44632,409.47567,14.53091,402.42584c4.42026-3.09,9.74979-4.24234,15.198-4.40078,1.21111.28611,2.4209.57679,3.63313.85695,11.43092,2.64211,19.81044,8.56685,22.36915,20.76014.1313.62562.31393,1.21215,1.38665.86413-.20271-1.034-.38-2.106-.6249-3.16233-3.04735-13.14119-18.37252-20.626-26.80264-19.80619-.30809-10.31784-.99825-20.59913,3.63452-30.419,8.99376-19.06388,29.10854-29.39474,49.96052-24.98025,3.44895.73016,4.06289-.02364,4.05727-3.20188q-.10239-57.49389-.04717-114.98811c-.00124-14.73095.02306-29.46207-.05778-44.19261a4.53039,4.53039,0,0,1,2.3369-4.24058q25.68679-17.40886,51.2742-34.96411,18.56676-12.67349,37.16384-25.30225a4.80836,4.80836,0,0,0,2.24115-4.66631c-.37129-12.82678.59166-25.67382-.55455-38.48736-.11273-1.26008.79972-1.398,1.39165-1.92029q16.04709-14.15847,32.10964-28.29944c2.05052-1.808,4.64567-1.62481,7.05261-1.74811,4.11129-.21064,8.24848-.20883,12.36073-.008,2.8437.13889,3.99079-.60516,3.88072-3.70839-.23441-6.60883-.19937-13.23535-.01116-19.84713.07951-2.79262-.75759-3.99232-3.5775-3.5449a2.80338,2.80338,0,0,1-.74821.00079c-1.29033-.14757-3.45673.51288-3.494-1.14435-.04378-1.94451,2.14243-.69444,3.29048-1.05855.227-.072.50812.0383.74423-.01864,1.20578-.2908,3.36532.79181,3.407-1.09473.04364-1.97569-2.12537-.90466-3.31523-1.15841-1.37729-.2937-2.93657.502-4.49311-.84366,1.44784-1.08155,2.98877-.77786,4.29808-.62183,3.25425.38779,4.21812-1.02269,3.87519-4.03935-.11213-.98594-.49234-2.217.54966-3.03946.84218-.0267.78614.6036.818,1.0322.44564,5.9912.43887,5.97284,6.33758,5.99947,3.11494.01406,6.22961.1005,9.34355.18662.14246.00394.27609.3265,1.05385,1.30978-4.57389,0-8.5565-.08082-12.53251.04515-1.33781.04239-3.79188-.82326-3.79028.97052.00211,2.37881,2.53747,1.05636,3.92839,1.2025a54.79083,54.79083,0,0,1,6.50635.54766c-2.34185,1.57393-4.91619.99857-7.35076.95208-2.50961-.04793-3.54809.58726-3.48436,3.32638.17137,7.36225.12795,14.73216.01834,22.09674-.03367,2.266.68728,3.03858,2.99344,3.02765,16.363-.07758,32.74008.357,49.08474-.19676,9.232-.31277,18.45263-.25019,27.67682-.38339a7.23131,7.23131,0,0,0,5.251-2.19568c6.17183-5.73552,12.52176-11.27961,18.80865-16.89135.84785-.75682,1.90042-.47152,2.8673-.472q42.53237-.02289,85.06467-.01606c1.62511-.0003,3.29075-.15289,4.25393,1.82367H345.80077c2.60307,3.17084,6.07613,5.405,8.96009,8.26516.95165.94377,2.25346,1.65108,2.44647,3.19025l-.22924.27246a63.04527,63.04527,0,0,1-10.51338-8.83471c-2.12207-2.05886-3.61291-3.00192-6.41159-.37545-7.69955,7.226-15.81343,14.01088-23.76235,20.97152-.81372.71257-1.47254,1.705-3.37172,1.5447,1.52108-1.74653,2.79685-3.21142,4.15287-4.76842-1.58407-.80318-2.96058-.44839-4.27493-.44951-29.57917-.02542-59.159.08245-88.73686-.11013-5.56681-.03624-10.16811.71434-14.4634,4.84643-8.32675,8.01037-17.21831,15.43422-25.9029,23.12511.65159,1.25936,1.78249.66559,2.63551.66655q48.1153.05453,96.23067.05571a12.60919,12.60919,0,0,0,4.724-.88729l.202.23787c-.56518,2.71705-2.745,2.07416-4.50967,2.07546q-47.94829.03556-95.89653.02568c-6.03843.00338-5.35248-.67259-5.36827,5.41224-.02877,11.10761-.06441,22.21584.03573,33.32263.022,2.4346-.49714,4.094-2.695,5.571-13.13208,8.825-26.15163,17.81745-39.19976,26.767-15.82112,10.8515-31.58326,21.79018-47.49587,32.50583-2.81392,1.8949-3.57672,4.21977-3.57439,7.22512q.01159,14.97663.00261,29.95329-.00008,62.90195-.06812,125.80367c-.00855,3.42818.79606,5.205,4.2548,6.61324,9.08077,3.69714,15.7761,10.34444,20.40965,18.95065,3.9008,7.24536,7.41778,14.69977,11.40651,21.89442,4.14391,7.47458,10.28285,12.70071,18.70041,14.95643Q144.14479,401.524,144.80255,401.85687Z"/><path class="cls-3" d="M605.92855,410.046c17.73618,2.1864,30.99681-5.70475,42.13126-18.55846,6.43758-7.43155,12.62218-15.1018,20.0481-21.63474,1.34811-1.186,3.35947-1.78167,3.86983-3.83222.78879-.0834,1.65691.03663,2.13827-.83413,15.72564-9.89619,32.97907-11.748,51.01691-9.9009,7.75312.79394,14.99971,3.415,22.42078,5.4367q.71161.38835,1.42332.77666c7.15006,3.95234,13.98025,8.21118,19.97179,13.977,12.13239,11.67535,18.88674,26.18189,23.52495,41.93263,2.45137,8.32453,3.49433,16.92283,4.44553,25.52566.27961,2.52975.114,3.95211-3.29716,3.9474q-131.69895-.18122-263.398-.12094a5.04338,5.04338,0,0,1,.35473-1.3915c6.16208-10.28829,6.09145-20.58207.08518-30.89263a2.44231,2.44231,0,0,1-.95046-2.18384c6.33584-5.77644,14.21714-7.48295,22.36039-8.10583,15.48409-1.1844,30.54024,2.10889,45.64471,4.7836,2.45009.43385,4.93064.69586,7.3971,1.0373Z"/><path class="cls-2" d="M345.6337,336.68388c-.63224-2.101-2.38416-1.37023-3.73794-1.37965-12.93336-.09022-25.86708-.12538-38.80052-.17632-7.17216-4.01837-9.61479-10.50535-9.82445-18.316a63.29166,63.29166,0,0,1,2.32524-19.0845c15.96485.39915,31.90257-.70011,47.85727-.86605,3.21023,3.19338,7.51673,3.81191,11.61764,4.51166,10.02,1.70966,20.10935,3.00842,30.15532,4.572,11.43117,1.77916,19.14407,7.31778,22.28019,19.31829,4.68712,17.93572,7.66327,36.13244,10.24021,54.42542,1.50415,10.67779,2.58761,21.41434,4.04015,32.1.69135,5.08625.88152,5.06042-4.24409,5.82953-5.18971.95133-10.57445.88242-15.54827,2.96562-1.91195-.44588-4.52509,1.22226-5.26373-2.449-2.622-13.03114-5.44737-26.02212-8.30891-39.00341-.45048-2.04345-.52048-4.31348-2.07267-6.28767a22.74728,22.74728,0,0,0-1.49161,2.01571q-9.63065,16.8927-19.23594,33.79981c-1.35565,2.37721-2.26238,5.57639-4.32932,6.845-2.85459,1.752-4.66411-2.46318-7.388-3.04573-.12187-.026-.247-.03672-.37065-.05455-3.53747-4.14545-8.694-5.979-12.968-9.07267a24.23881,24.23881,0,0,1,.885-2.43341q14.09725-29.04438,28.22416-58.07454a24.61088,24.61088,0,0,0,2.432-6.23106,5.919,5.919,0,0,0,1.80984.3739c4.18019-.49252,5.26881,1.77788,5.91574,5.48847,1.31727,7.55505,3.25946,14.99959,4.81823,22.51574a4.69279,4.69279,0,0,0,1.68024,3.05834c.10947.18959.21954.37734.32961.565l-.35852-.51359c-.248-1.67-.40437-3.35969-.75956-5.00656q-2.43382-11.28465-4.96381-22.54844c-1.07993-4.84057-3.2364-5.82327-8.44606-3.90583Z"/><path class="cls-3" d="M343.45325,296.86139c-15.95465.16589-31.89237,1.26515-47.85722.866-2.70834-9.39846-1.11534-18.64731,1.86945-27.52774a273.631,273.631,0,0,1,18.828-43.81718c5.49169-10.08847,14.34308-17.12154,22.12058-25.14945,1.16763-1.20523,1.93176-.42509,2.85514.13368,4.10342,5.33583,9.13782,9.7161,14.326,13.93843.52939,1.84834-.85792,3.31624-.99928,5.03139-1.60187.50907-2.17711-.90424-3.00144-1.69887-3.57773-3.44876-7.074-6.98179-10.64019-10.44273-.61426-.59613-1.08148-1.68478-2.90935-1.089,5.60058,5.03134,10.07891,10.65134,15.83415,14.98069-1.90691,12.37382.2265,24.26129,4.23376,35.94816.64327,1.876,2.10634,1.90285,3.53995,2.10812q14.79494,2.11776,29.5987,4.17534c.71472,6.11213.29585,12.23929.2351,18.36194q-20.926.51078-41.852,1.02166a62.71276,62.71276,0,0,1-9.58011-1.90953,12.72751,12.72751,0,0,0,8.86081,2.42317C347.99586,288.81966,346.7446,293.28071,343.45325,296.86139ZM326.854,237.57647c2.46559,13.29561,2.93611,27.02264,8.36769,39.6352C330.90693,264.32137,330.39976,250.60961,326.854,237.57647Zm11.7267,43.51941.49916-.4906a13.20217,13.20217,0,0,0-1.17472-1.3352c-.39824-.35155-.70773-1.01275-1.45045-.6934-.18509.74054.35853,1.10886.76587,1.4979A13.44036,13.44036,0,0,0,338.58067,281.09588Z"/><path class="cls-2" d="M530.66085,414.47207c6.00947,10.315,6.0801,20.60878-.082,30.89707a5.04338,5.04338,0,0,0-.35473,1.3915c-4.72066,4.51875-9.51588,8.93288-15.79993,11.259-.28566.10827-.82731.25295-.81789.31884.08537.59627.59308.34533.9565.39521,16.32064-1.30273,32.633-.33462,48.9738-.12163a9.08585,9.08585,0,0,1-5.59682,1.5958q-157.07391-.00946-314.14792-.01367c-.74624,0-1.49244-.09722-2.23754-.147-.84112-2.58856-1.98387-2.779-4.3941-.73071a29.93154,29.93154,0,0,1-28.64037-25.40508c-.778-5.67494.7924-10.77075,1.70361-16.09039q1.2096-.0105,2.41111-.01944c-.23158.39178-.138.81557.25683.87589.60483.09241.86157-.30591.72085-.9143q.9533.16832,1.90326.33426c2.33782,1.94322,5.67738,2.79126,7.96863,2.11977,3.96188-1.161,6.912.1231,10.11719,1.623l-.614.49q-.61306.55352-1.22591,1.1073-.37338.38479-.74716.76907c-3.21591,4.10113-3.13388,7.44952.28849,11.776,3.87564,3.31524,8.30579,3.66738,11.86353.94292,3.61712-2.76986,4.411-7.03977,2.22226-11.69524-.31937-.67931-1.46732-1.28514-.42408-2.21758.75621-.67584,1.52643-1.27128,2.52186-.25209,1.30657,1.33758,2.67732.54227,4.01893,0,.95078,2.39184,5.00667,3.06534,7.2389,1.20209q.49622-.11584.99241-.2316.04975.72122.09946,1.44239c2.34862-.46042,4.46131,1.667,6.863.62516,1.75018,15.20084-5.5955,25.22525-18.94447,32.07375H496.59416c-9.752-3.9715-16.16427-9.93447-18.78125-19.423,2.21366.288-.29782-2.34191,1.42954-2.32481,2.22757.022,3.50129-2.54631,6.13995-1.95264,1.33245.29982,2.55613-2.09906,4.476-1.47655-.02013-2.813,2.73144-1.78551,3.83031-2.80205,2.87572-2.66035,2.80536-.16475,3.1654,1.54422a8.82742,8.82742,0,0,0,6.10847,6.93089c3.61556,1.246,7.26159-.03671,8.52763-2.835l-.05582.05684a6.06031,6.06031,0,0,0,2.61112-8.47909c-2.00074-3.68841-1.74007-4.97839,2.52347-6.27326C521.45981,419.35256,525.97981,416.64736,530.66085,414.47207Z"/><path class="cls-4" d="M748.977,361.49892q-.71162-.38835-1.42323-.77671.00014-34.21773.02864-68.43532c.00457-2.2499-.10934-3.69791-3.08644-3.68369q-33.67207.16077-67.34523.013c-2.51633-.00878-3.15873.90511-3.14994,3.27555q.135,36.64709.11519,73.29473c-.48136.87076-1.34948.75073-2.13827.83413-.01674-24.70515-.08765-49.41044.02169-74.115a7.3349,7.3349,0,0,0-3.14948-6.5483c-23.16318-17.84129-46.24594-35.7868-69.42019-53.61369-1.72058-1.32354-1.7097-2.80951-1.70878-4.55789.01144-21.08687-.04813-42.174.07018-63.26024.01674-2.99819-.79831-4.21394-3.85364-5.07832-20.15552-5.70233-34.42627-18.81579-44.94468-36.47114q.35918-.38108.71907-.76257c5.18866,6.64794,9.79193,13.77265,16.09565,19.5084,8.80294,8.0098,18.734,13.939,30.42651,16.65971a14.94037,14.94037,0,0,0,3.28618.56894c21.8245.03341,43.649.0249,66.55032.0249-6.50474-2.827-12.1884-5.11147-17.05883-8.841-2.91114-2.22931-6.47318-3.8011-7.99878-7.51543l.16881-.2c2.73317.8464,4.29931,3.27637,6.492,4.86385,7.03578,5.09376,14.56226,9.07339,23.07461,10.92395,3.15113.68507,4.26272,1.95985,4.22767,5.42788-.2141,21.17969-.09259,42.36263-.13148,63.54441-.00356,1.92653.09168,3.71968,1.57346,5.14382l-.15892.16375a27.47405,27.47405,0,0,0-8.11462-.89688q-31.28977.06537-62.57965.02383h-4.46255c9.907,7.69351,18.92736,14.72007,27.97094,21.71658,13.68637,10.5884,27.44429,21.08561,41.031,31.79985a11.14272,11.14272,0,0,0,7.44367,2.68481c21.23426-.08245,42.46906-.03475,63.70368-.07042,1.154-.00192,2.43353.46878,3.98933-.77936-.96327-.79143-1.79351-1.51143-2.66217-2.18164-10.447-8.06033-20.97093-16.02322-31.325-24.20093-6.4385-5.08516-13.26887-9.68754-19.2272-15.37332a3.16271,3.16271,0,0,1,.26553-.269c4.7911,1.72872,8.18067,5.50333,12.09369,8.4657,14.24852,10.7867,28.27946,21.86062,42.53814,32.63361,2.50956,1.896,2.16215,4.0475,2.159,6.47757q-.04352,32.36059-.02077,64.72121C749.06174,358.25844,749.00675,359.8787,748.977,361.49892Zm-112.46412-131.98c11.11157,0,22.2236-.05053,33.33435.04014,2.38577.01953,3.582-.35186,3.56726-3.19836q-.16414-31.63324-.01455-63.26771c.00888-2.41318-.67442-3.23922-3.16522-3.23019q-33.52164.12133-67.04366-.00425c-2.6318-.01059-3.41052.80009-3.39936,3.41021q.1345,31.44637.00046,62.8934c-.011,2.59779.75118,3.43975,3.38664,3.4098C614.28893,229.44581,625.40133,229.51856,636.5129,229.51888Z"/><path class="cls-3" d="M241.62251,322.46771q-16.68115-.01152-33.36-.02346c-4.16774-2.64964-5.65144-6.47491-5.49819-11.33985.22627-7.185.09969-14.38111.12279-21.57333q19.42872.06578,38.85871.1332Q241.68416,306.066,241.62251,322.46771Z"/><path class="cls-3" d="M283.54424,322.4q-16.47954.02763-32.95881.055-.11062-16.381-.22174-32.76151c1.36636-.04193,2.73249-.11336,4.09907-.12118q17.34981-.09932,34.69966-.17878c.03839,7.79617.02873,15.593.13382,23.38828C289.35608,317.22425,287.25157,320.26367,283.54424,322.4Zm-10.8117-16.36229H269.3701c-7.1173,0-7.01089-.0032-6.798,6.96039.06922,2.26432.98414,2.68262,2.93584,2.63127,3.85794-.10147,7.72036-.02849,11.581-.02913,5.085-.00082,4.83585-.01815,5.16382-4.899.25051-3.7276-.78376-5.32385-4.66992-4.70513A31.19852,31.19852,0,0,1,272.73254,306.03766Z"/><path class="cls-3" d="M203.00809,250.8103c-1.35254-1.01475-4.144.939-4.43171-1.45327-.35963-2.98912-1.01575-6.24624.823-9.10065.77954-1.21018,2.15295-1.09834,3.4016-1.09848q43.23017-.00568,86.4603-.03475c3.04115-.00562,4.34314,1.36845,4.40078,4.24019a17.90019,17.90019,0,0,0,.04291,2.61494c.57931,3.40148-.49563,5.21434-4.23517,4.63636q-.69666-.01839-1.3939-.0353-20.96119.00006-41.92233.00018c-2.11059-.05254-4.227-.23169-6.33058-.13357-5.86257.27358-11.788.61443-17.58406.534C215.84075,250.89119,209.4217,250.76659,203.00809,250.8103Z"/><path class="cls-2" d="M549.71191,121.61343q-.35972.38139-.71907.76257c-3.51565-4.38518-5.35627-9.75311-8.48709-14.81278-2.49108,4.49486-4.63694,8.79319-7.16544,12.85344-9.43774,15.155-21.00039,28.09225-37.80906,35.414a79.44018,79.44018,0,0,1-11.69972,3.81676c-2.52739.66164-3.85171.11562-3.86-3.01605-.01665-6.20758.51741-12.42133-.64532-18.6322C476.06351,120.572,459.717,107.1226,442.0191,106.50189c-19.49441-.68376-36.73358,13.41128-40.38588,31.52517a47.93987,47.93987,0,0,0-.45167,5.94371c-.04836.62766-.1178,1.36065-.88381,1.43439-1.04607.10069-1.11552-.7674-1.15033-1.50986-.04676-.99578-.02686-1.99494-.0269-2.99264q-.00151-28.998.00882-57.996c.00732-5.61127.967-11.4328-3.98287-15.78275l.20765-.246c4.44964,4.77344,10.28134,3.86342,15.89307,3.86317q35.36244-.00168,70.72488-.00046l4.08732,0c.23331-1.7471-1.94027-2.148-1.656-3.69259l.10577-.12337c3.34583,1.6623,5.6153,3.62812,5.41337,8.09412-.40533,8.96505-.04886,17.96226-.1657,26.94412-.03166,2.437.72511,3.21642,3.19248,3.21153q51.11748-.10125,102.23494-.00044c2.45795.0048,3.2407-.75754,3.20026-3.20469-.12773-7.7336-.079-15.47085-.02434-23.20616.01318-1.86167-.26689-2.48581-2.50388-2.22952-2.90574.33286-6.02338.765-8.83451-1.34266,2.67388,0,5.34795.01027,8.02175-.00471,1.18222-.00663,2.43608-.19561,2.43883-1.67346.00338-1.7926-1.54428-1.26581-2.53436-1.27841-4.418-.05613-8.83707-.02437-13.27427-.50132,1.9453-1.452,4.13765-.85835,6.21324-.97106a32.68388,32.68388,0,0,1,5.61137.01856c3.20474.38225,4.71068-.62169,4.20727-4.06091-.1442-.98481-.46956-2.21466.53562-3.08828.24914.10821.6358.22317.62739.27993-.94955,6.43976,2.672,7.89195,8.44043,7.28048-2.15272,1.432-4.22456.82542-6.17252,1.01967-.87013.08681-1.86872-.00638-1.82388,1.28358a1.60758,1.60758,0,0,0,1.70649,1.62689c2.10872.06484,4.22081.02009,6.75023.02009a6.565,6.565,0,0,1-5.51869,1.53711c-2.22647-.18578-3.09971.57631-3.0621,2.92645.11967,7.48423.13715,14.9734-.00705,22.45678-.04941,2.56677.94818,3.20207,3.2999,3.10709,3.73872-.151,7.48815-.02149,11.23281-.04785,1.42707-.01,2.68715.07,3.43413,1.62083a131.82907,131.82907,0,0,0,14.81936,24.53892c.27413.34885.2163.95828.31091,1.44893l-.22389.24138c-5.70314-5.87981-9.812-12.88464-13.22807-20.18741-2.18694-4.67506-4.80382-6.43079-10.12835-6.33961-20.94678.35875-41.90371.19066-62.85634.09975-3.13686-.0136-4.172.5-2.32089,3.6059C545.74235,113.87748,547.66176,117.78439,549.71191,121.61343ZM400.6048,133.77448a3.77837,3.77837,0,0,0,1.54432-2.45478c6.197-15.78721,21.63872-26.47917,38.23965-26.21751,14.72083.232,29.4497-.07131,44.17208.10444,3.53322.04216,4.49933-1.11254,4.4146-4.50663-.20824-8.3514-.14548-16.71261-.02113-25.06735.03723-2.504-.57176-3.48831-3.30595-3.47908q-40.80423.13787-81.60917.01159c-2.48846-.00642-3.50531.554-3.49039,3.29133C400.65407,94.78715,400.6048,114.11868,400.6048,133.77448Zm53.82983-27.18271a14.88071,14.88071,0,0,0,1.32816,1.06754c.887.45621,1.785.89137,2.682,1.328,11.876,5.78118,19.01969,15.30566,22.22718,27.97832,1.43265,5.66058.69345,11.41394.84048,17.1273.11163,4.34026.07082,4.5,4.29529,3.37617a65.75976,65.75976,0,0,0,20.90441-9.73779c13.764-9.62461,22.89226-23.04333,30.67749-37.54289,1.74886-3.25714,1.48316-3.5898-2.50544-3.5914q-38.76369-.01568-77.52748-.00526Z"/><path class="cls-3" d="M202.93123,282.8599q.04351-14.86692.08761-29.73147c4.45211-.193,8.82028,2.286,13.34765.42265.27412-.11281.82067.65411,1.25121.66756,3.01375.0941,5.89409,4.61093,9.08022.30618.16456-.22232.98413-.20751,1.33113-.00956,3.764,2.14694,8.77911-.09877,12.12229,3.46422.047.93331.43694,1.18837,1.24.62626.71523,8.02142.15532,16.05953.31639,24.08826Q222.31951,282.77693,202.93123,282.8599Zm19.17925-9.21336h3.36217c6.79071-.00005,6.69359.00279,6.49234-6.89555-.06382-2.18686-.85334-2.75546-2.877-2.70009a111.46611,111.46611,0,0,1-12.32056-.04508c-3.70354-.31016-4.6841.98512-4.46538,4.55.35743,5.8257-.57716,5.0109,5.32558,5.08777C219.12162,273.66309,220.61617,273.64654,222.11048,273.64654Z"/><path class="cls-3" d="M289.05162,265.11637q-.02546,8.87277-.05174,17.744-19.47017-.05535-38.93868-.10741l.16662-22.12053-.00289-.02456a2.28009,2.28009,0,0,1,.07928-2.14735c.47569.00924,1.1605-.1834,1.39477.059,2.35914,2.44068,5.94117,1.01549,8.49543,2.75372q.09949-.5197.199-1.0394l-.0533.04582c2.1427-.80734,4.23133,2.81065,6.471.05976.2905-.35689.62634.29288.77891.82847.481,1.68871,1.87078,1.58688,2.93254.89774,1.17829-.76477,1.8996-.75037,2.60175.42877l-.15834.18273.12553-.21524c3.08777-.05862,6.348-.79668,8.63153,2.37543.50062-3.02172.956-3.31542,1.36878-2.6576,2.02824,3.23256,3.95611.70313,5.92214.10828a3.73328,3.73328,0,0,1-.02105,2.88056Z"/><path class="cls-4" d="M559.57136,168.64811c4.726,4.41769,7.22308,9.4817,7.25565,15.13858.2034,35.20475.09433,70.41119.17677,105.6169.00613,2.59624-1.02046,3.09305-3.32817,3.08112q-22.2948-.11517-44.59013.00745c-2.47159.01568-3.19111-.78992-3.18654-3.22072.06762-35.33059-.00778-70.66159.11977-105.99186.01885-5.22115,2.38558-9.717,6.56522-13.93326.16048,2.65479-1.50612,3.69906-2.19225,5.18384-.57213,1.23822-1.22266,2.45078-1.67356,3.73267-2.9793,8.47093-2.41431,9.26711,6.43713,9.26693,4.2467-.00007,8.49569-.08087,12.73929.033,2.1.05636,2.86-.67567,2.82686-2.79965-.09909-6.3655-.12763-12.73545.007-19.09964.05975-2.82061-1.22907-2.97073-3.49534-2.6019-4.49264.7312-8.41765,2.74089-12.58475,5.648,3.62846-8.22209,25.07828-10.9722,33.60774-1.048-.89346.96739-1.51453.06548-2.16855-.3354a23.6635,23.6635,0,0,0-2.82686-1.81649c-3.30494-1.41488-7.14787-3.78691-10.20439-2.10087-2.27158,1.25306-.70626,5.52445-.81459,8.44165-.15738,4.23886.06468,8.49146-.0807,12.73116-.07933,2.31292.75951,3.03917,3.02724,2.9886,5.61787-.12539,11.2511-.24818,16.85744.03555,3.475.17586,3.69764-1.58565,3.31089-4.10617a24.41491,24.41491,0,0,0-4.98664-11.90565A3.30463,3.30463,0,0,1,559.57136,168.64811Zm-18.88408,71.2581c0-15.72938-.078-31.45948.06816-47.18747.02791-3.01063-.89026-3.87424-3.81759-3.75871-5.36222.2116-10.7422.17467-16.10781.01106-2.58349-.07878-3.506.70924-3.43605,3.37178.16689,6.36227.05334,12.73188.05334,19.09854-.00009,25.21692.05627,50.43412-.07054,75.6504-.01592,3.17271.93976,4.06684,4.01458,3.92422,5.10979-.23691,10.24657-.23833,15.35617.0005,3.07775.1439,4.04432-.74963,4.0122-3.923C540.60054,271.36581,540.68728,255.63555,540.68728,239.90621Zm1.51426-.26027c0,15.97942.04986,31.95915-.05051,47.93793-.0161,2.57209.67433,3.62325,3.35691,3.412,2.60672-.20531,5.24493.03078,7.86455-.06209,3.84175-.13608,8.8432,1.62529,11.2189-.6837,2.57306-2.50072.80169-7.5739.81249-11.51078.078-28.58795-.00165-57.1764.10522-85.76416.01144-3.05535-.74908-4.1809-3.93992-4.02269a139.45006,139.45006,0,0,1-15.35434-.01228c-3.47851-.21183-4.11312,1.10388-4.0822,4.26625C542.28443,208.685,542.20136,224.1659,542.20154,239.64594Z"/><path class="cls-3" d="M342.77243,195.91816c-6.90783-5.00313-8.00679-15.8079-2.42117-23.80431,4.37969-6.27,13.991-10.05708,20.75454-8.1776,7.04036,1.95642,11.52934,7.78966,12.38095,16.08818-3.71173.15469-7.45228.07451-11.12773.52528-4.335.53166-6.01,2.58488-6.01761,6.91825-.0049,2.77944-.73668,5.28089-2.9293,6.8958-1.97943,1.45778-1.52972,2.6253-.55053,4.33624.99429,1.73723,3.13777,2.936,2.71707,5.387-3.60925-3.53267-5.71888-9.35194-12.43626-8.1493A1.60826,1.60826,0,0,1,342.77243,195.91816Zm1.49436-10.63678q-.37577.37523-.7515.75046c-2.00921,2.95222-1.74218,5.90572.85078,7.69562a5.28246,5.28246,0,0,0,7.39051-.71426c2.22766-2.27312,1.92412-5.08521-.65511-7.72548C348.82532,183.06291,346.54651,183.03422,344.26679,185.28138Z"/><path class="cls-2" d="M355.5786,204.087c.42075-2.45108-1.72273-3.64981-2.717-5.387-.97919-1.71094-1.4289-2.87846.55053-4.33624,2.19262-1.61491,2.9244-4.11636,2.9293-6.8958.00759-4.33337,1.68261-6.38659,6.01761-6.91825,3.67545-.45077,7.416-.37059,11.12773-.52528.75283,4.431-.13492,9.2523,3.17226,13.08024.49143.56883.82424,1.55734.11259,2.0237-2.72906,1.78863-2.25854,4.687-2.86077,7.276-1.29554,5.5699-4.96166,7.82132-10.56337,6.56612a18.86255,18.86255,0,0,0-4.05223-.43635,4.44641,4.44641,0,0,0-3.75514-4.48683Z"/><path class="cls-4" d="M144.80255,401.85687q-.65754-.33238-1.31448-.664c-.01084-14.72977-.20395-29.46342.04529-44.18962.11936-7.05244-2.332-11.80384-9.3-13.84917-.65438-.192-1.4848-.39755-1.68518-1.29757,2.87669-.32434,6.8296,1.67783,10.90672,5.71545,0-7.80249.00018-15.20793-.0001-22.61337-.00023-5.61769-.08792-11.23711.02686-16.85242.08614-4.21682-1.56939-7.8622-3.69974-11.58518,2.24692-.01422,2.03355,1.97651,3.15909,2.72679,1.06094-.48269.47971-1.48071.4814-2.18855.04113-17.3523.01309-34.70469.05856-52.05694a6.40335,6.40335,0,0,0-1.816-5.03911c-1.792-1.79283-2.92907-4.10895-2.2229-6.75225.7053-2.64009,1.56179-5.65083,4.907-5.68682,2.2891-.02465,4.78511,5.22371,4.15511,8.03664-.24077,1.07489-.5207,2.43666-1.28131,3.04633-2.67946,2.14766-2.36046,5.00006-2.35131,7.86188.02356,7.33987.00787,14.67988.39412,22.13932,2.27958-5.83232,6.43287-10.78534,7.23135-17.252.40863-3.30907,2.55934-5.34845,5.81006-6.03476,1.53741-.32456,2.35452.13814,1.76784,2.04446a6.89081,6.89081,0,0,1-3.74283,4.44244,6.10687,6.10687,0,0,0-3.81727,4.62136,5.34306,5.34306,0,0,1-.65342,1.74335c-6.73087,10.20265-7.51513,21.54735-7.085,33.36057.45849,12.59188.04932,25.21395.18752,37.821.01363,1.24905-1.67255,3.72983,1.6381,3.87812.48516.02172.27582.85842-.01354,1.26433-2.21315,3.10462-1.67223,6.67309-1.69835,10.132-.04044,5.35486-.01066,10.7103-.01066,16.764,3.25274-3.04436,6.4126-5.02842,10.56772-4.52168,3.02162.36851,3.59159,1.26268,1.93071,3.71864-2.096,3.09927-4.99231,4.92964-8.82614,4.51673-3.0756-.33119-3.76461.92527-3.73245,3.79578C144.94254,379.886,144.82821,390.87189,144.80255,401.85687Z"/><path class="cls-5" d="M273.124,262.49393c-.70178-1.17869-1.42309-1.19309-2.60138-.42832-1.06176.68914-2.45159.791-2.93254-.89774-.15257-.53559-.48841-1.18536-.77891-.82847-2.23969,2.75089-4.32832-.8671-6.47093-.0599.01231-.35182.04726-.73244-.48978-.384l.543.33833q-.09957.5197-.199,1.0394c-2.55426-1.73823-6.13629-.313-8.49543-2.75372-.23427-.24239-.91908-.04975-1.39545-.05633-.1377-1.09592-.91853-1.706-1.76277-1.11193-2.787,1.96106-2.57557-1.03871-3.52919-2.01926-1.05065.30293.63219,2.10024-1.14805,1.96334q-.18987-.46126-.379-.923l-.32047.92724q-1.04574.14911-2.09151.29813c.05654-.49507.65561-1.35765-.0683-1.3946-1.10111-.05624-1.06072.97031-.89195,1.82507l.039-.04865c-3.34318-3.563-8.35832-1.31728-12.12229-3.46422-.347-.198-1.16657-.21276-1.33113.00956-3.18613,4.30475-6.06647-.21208-9.08022-.30618-.43054-.01345-.97709-.78037-1.25121-.66756-4.52737,1.86334-8.89554-.61566-13.3477-.42265q-.00672-1.16465-.01153-2.32128c6.41444-.04056,12.83349.084,19.23168.17279,5.79606.08044,11.72149-.26041,17.58406-.534,2.10355-.09812,4.22.081,6.33058.13357,1.91342,3.76331,4.97794,4.7643,8.38522,2.16061,1.213-.927,1.79113-.49238,2.20519.05427,1.52355,2.01159,2.80624,4.10022,5.44869,1.2015.33767-.37033,1.34962.27,1.75243.98668.24086.4285.09287,1.54605,1.08894.83711a7.88477,7.88477,0,0,1,5.08893-.90739c2.05459,3.27578,8.35273-2.6143,8.5887,3.98472.00055.01673.31612.07531.34288.03031,1.18644-1.99681,3.48784.0952,4.77181-1.26638.7445-1.5803-2.92912-.50761-1.34971-2.28348.513-.57674.46494-3.32506,2.80015-1.3421.47143.40028,4.29662-.23527,2.7991-3.456q.69706.01728,1.3939.0353-.22824,5.8379-.45588,11.67389c-1.96594.5943-3.89381,3.12373-5.92205-.10883-.41274-.65782-.86816-.36412-1.36878,2.6576-2.28352-3.17211-5.54376-2.43405-8.63153-2.37543Zm-61.78194-9.316c-.184-.11993-.35478-.3188-.52451-.31788-.17626.00091-.35148.19511-.52715.30481.16972.11431.33794.31569.50959.31857C210.97421,253.48652,211.1518,253.29364,211.34207,253.178Zm12.12256,1.52063-.17828-.24134c-.07476.06634-.20194.1273-.20953.20055-.00759.07357.10408.1594.1635.23983Z"/><path class="cls-2" d="M422.2372,277.47061c-5.023-2.54845-7.2066-2.23175-10.28435,1.49191a28.51892,28.51892,0,0,1-13.61455,2.28933c.15148-4.74917-.70443-9.54515.66157-14.23794,5.14556-.41954,10.28454-1.03071,15.43843-1.207,5.6272-.1926,10.56136,1.97944,14.94233,5.41292.24407.19137.09507.88371.129,1.34248-3.61991-.95467-6.57025-3.67424-10.47371-3.92422,5.05635,3.01139,10.20864,5.79,15.905,7.40933q-.05387,1.145-.10792,2.28827-.70845-.05672-1.41613-.11029-.69775-.38656-1.39586-.77263c-4.41236-3.05776-9.47833-4.39753-14.41166-6.086l-.40323,1.00328q7.0335,2.75447,14.067,5.509c.13208,2.26646-1.25935,1.97885-2.70632,1.62035C426.411,278.96527,424.57493,277.436,422.2372,277.47061Z"/><path class="cls-5" d="M511.4902,435.5334c-1.266,2.79831-4.91207,4.081-8.52763,2.835a8.82742,8.82742,0,0,1-6.10847-6.93089c-.36-1.709-.28968-4.20457-3.1654-1.54422-1.09887,1.01654-3.85044-.011-3.83031,2.80205-1.91986-.62251-3.14354,1.77637-4.476,1.47655-2.63866-.59367-3.91238,1.97468-6.13995,1.95264-1.72736-.0171.78412,2.61279-1.42972,2.32454-.06661-1.46278-.939-2.60443-1.5364-3.85554,4.14011-3.33856,8.97285-5.51353,13.56349-8.09842,1.29128-.72714,2.43919-1.70468,3.71017-2.47292.79071-.47789,1.49861-1.15,2.64094-.25748,2.407,1.88039,4.651,1.08233,5.11684-1.97725.27375-1.79846,1.73742-1.56882,2.39207-1.604,4.41049-.23677,8.03392-2.41114,11.82708-4.25336.69006-.33517,1.71811-3.63024,2.63033-.06447.02324.091.63764.15053.65356.10691,1.42871-3.91046,6.217-2.99539,8.37391-5.83576q1.26884,1.07768,2.53317,2.15553a2.42918,2.42918,0,0,0,.94616,2.18416c-4.68424,2.17085-9.20424,4.876-14.09508,6.36138-4.26354,1.29487-4.52421,2.58485-2.52347,6.27326a6.06018,6.06018,0,0,1-2.61112,8.479c.53581-1.22555,1.16127-2.42065,1.5892-3.68265a6.36837,6.36837,0,0,0-1.94127-7.41728c-2.2713-1.82539-4.20828-.86194-6.07727,1.32775a7.05733,7.05733,0,0,1-4.55093,1.90792c-3.30393.21944-2.72384,2.2832-2.196,4.12235a7.77551,7.77551,0,0,0,4.85588,5.25421C506.33658,438.40441,508.81887,436.67047,511.4902,435.5334Z"/><path class="cls-2" d="M448.476,303.65661q-3.67348-5.66355-7.34651-11.3266c6.17819-4.39158,12.83665-7.9975,19.36051-11.82341,7.09462,8.38741,1.76011,21.32362-8.721,22.533C450.66242,303.1673,449.57325,303.44732,448.476,303.65661Z"/><ellipse class="cls-4" cx="442.51774" cy="469.38843" rx="132.89097" ry="0.43007"/><path class="cls-4" d="M238.62742,86.42633c12.34856.00016,24.69776.06383,37.04526-.05124,2.60563-.02425,3.46483.76258,3.40682,3.39085-.20038,9.08254.87118,7.82315-7.72045,7.83961-22.95077.044-45.90209-.04717-68.85218.08407-3.3123.01895-4.58661-.68589-4.44337-4.28063.27778-6.9742.06253-6.98282,6.886-6.98284Q221.78848,86.42611,238.62742,86.42633Zm-.13935,1.52689c-11.73068,0-23.46314.113-35.19076-.07589-3.10721-.05-3.88562,1.03127-3.67971,3.85957.17248,2.3693-.431,4.50933,3.44543,4.48034q35.19006-.26309,70.38273-.00426c3.76008.02639,3.41189-1.94676,3.52786-4.43333.12979-2.78255-.52706-3.95264-3.66923-3.90152C261.70167,88.06705,250.09391,87.95324,238.48807,87.95322Z"/><path class="cls-4" d="M342.48133,49.7168a15.74294,15.74294,0,0,1,16.05073,16.076c.02177,8.40216-7.445,15.897-15.97469,16.03481-8.30777.13428-16.17813-7.85214-16.16766-16.406A15.97582,15.97582,0,0,1,342.48133,49.7168Zm-.471,16.02937c0-3.99543.01967-7.991-.012-11.98622-.00947-1.19825.28789-2.56133-1.86479-2.29465-5.84857.72451-11.1548,6.55162-11.668,12.40107-.81706,9.31062,5.15695,14.3282,10.38976,15.66151,2.18662.5571,3.2806-.04717,3.19029-2.54583C341.9104,73.24122,342.0104,69.4919,342.01031,65.74617Zm1.51349-.6569c0,3.97911.07557,7.96019-.02745,11.93663-.06515,2.513.91729,2.93706,3.197,2.32767,3.08027-.82337,5.2464-2.80809,7.17573-5.09271,6.394-7.5714,1.77265-20.50214-7.84438-22.457-2.241-.45554-2.56249.19573-2.52392,2.09458C343.5765,57.62736,343.52306,61.35886,343.5238,65.08927Z"/><path class="cls-2" d="M441.00509,290.88585c-2.17779-1.73582-2.97939-4.43311-4.59073-6.56418,5.25655-8.77581,12.50643-11.41,20.14957-7.30649,1.07727.57844,2.32894,1.015,2.51376,2.50314Q450.0407,285.20224,441.00509,290.88585Z"/><path class="cls-2" d="M420.07542,241.41925c-1.15148,3.5574-4.23051,5.10148-7.23273,6.49919a2.71763,2.71763,0,0,1-3.855-3.25067c1.82238-7.12071,5.684-12.893,12.123-16.712,1.20711-.71589,2.65284-1.18074,3.829-.09886a3.77147,3.77147,0,0,1,.79345,4.17169,36.28228,36.28228,0,0,1-4.07313,8.35165c-1.39043-.89888-1.89992-3.01134-4.07643-3.25159C417.71249,239.23669,419.67366,239.8496,420.07542,241.41925Z"/><ellipse class="cls-4" cx="240.84566" cy="222.07928" rx="84.11343" ry="0.53823"/><path class="cls-2" d="M342.77243,195.91816a1.60826,1.60826,0,0,0,.37.01954c6.71738-1.20264,8.827,4.61663,12.43626,8.1493l-.03856-.03969c.10037,2.11613,2.37428,2.78858,3.0201,4.54245-.51819,2.44583-1.00284,4.90644-2.96507,6.71523-5.18806-4.22219-10.22246-8.60246-14.32588-13.93829C341.30378,199.42226,343.071,197.95489,342.77243,195.91816Z"/><path class="cls-2" d="M605.92855,410.046q-.40638-.01914-.81276-.03832.01854-17.02406.0355-34.04806.00852-33.0605.02434-66.12093a7.08922,7.08922,0,0,0-1.82882-5.40548,5.82805,5.82805,0,0,1,.11052-8.37922c1.142-1.202,2.17469-1.915,3.77257-.47939,2.56062,2.30062,3.41986,5.42348,1.04965,8.309-2.33517,2.84289-2.3703,5.8155-2.35566,9.05067.0366,8.10665-.01153,16.21367.03532,24.32019.0075,1.31046-.5047,2.77068.68631,3.89527l.0215.02218c-1.50209,14.40013-.4067,28.844-.70461,43.26462-.027,1.30489-.5057,2.76538.6692,3.89592l.05508.05446C605.51243,395.57441,606.04475,402.82155,605.92855,410.046Z"/><path class="cls-4" d="M156.16583,320.92125c1.45886-6.26293.62171-12.62855.83463-18.94645.22151-6.57075,4.333-10.26607,10.60262-9.50157,1.07961.1316,1.78967.30321,2.08218,1.59173,1.29554,5.70671-2.14357,10.73023-8.03785,10.98424-2.71432.117-3.44909,1.04489-3.26417,3.536a51.80532,51.80532,0,0,1-.01126,6.71928c-.11665,2.07976-.19882,4.24718-2.16868,5.64873Z"/><path class="cls-3" d="M289.11142,284.21006q-.03432,1.99869-.069,3.99669-19.48506-.10419-38.97048-.20668-.04893-1.81137-.09584-3.62343Q269.54379,284.2933,289.11142,284.21006Z"/><path class="cls-3" d="M202.93119,288.10419q-.02176-1.9083-.04411-3.81736,19.4257.06481,38.85259.13123l-.02869,3.517Q222.32111,288.01966,202.93119,288.10419Z"/><path class="cls-5" d="M202.93119,288.10419q19.38987-.08457,38.77952-.16924a32.57539,32.57539,0,0,0,8.36229.06475q19.48458.10323,38.96943.207.06072.59337.12045,1.18614-17.35056.08793-34.70012.17933c-1.36658.00782-2.73271.07925-4.09779.12136q-4.3083-.0144-8.61908-.02931-19.42968-.067-38.85881-.1332Q202.90973,288.81843,202.93119,288.10419Z"/><path class="cls-5" d="M241.73967,284.41806q-19.42659-.066-38.85259-.13123.02278-.71285.04424-1.42711,19.3881-.08265,38.77609-.1659a32.54213,32.54213,0,0,0,8.35379.05913q19.46893.05288,38.93868.10741.05682.67629.11167,1.34956-19.56781.08348-39.137.16644Q245.85555,284.39694,241.73967,284.41806Z"/><path class="cls-4" d="M126.36039,335.68609c-1.55484-4.57838-4.19245-8.43433-5.92241-12.66322-1.30213-3.18313.36685-6.36046,3.23325-8.00505,3.0432-1.746,4.02212,1.70079,5.0241,3.34679a5.66336,5.66336,0,0,1-.21529,6.36769C125.62,328.05769,124.71378,331.44668,126.36039,335.68609Z"/><path class="cls-5" d="M420.07542,241.41925c-.40176-1.56965-2.36293-2.18256-2.4918-4.29063,2.17651.24025,2.686,2.35271,4.07643,3.25159,2.90349,3.22959,5.73534,6.53038,8.732,9.67424a15.91026,15.91026,0,0,1,4.44685,11.47594c.00352,4.83842.06629,9.67684.10261,14.51613-5.697-1.61843-10.8493-4.39707-15.90565-7.40846,3.90346.25,6.8538,2.96955,10.47371,3.92422l.06313-.01354q.77735.32622,1.55383.65462l-.02063-.02547q1.02412.6175,2.04769,1.23547.022-.6662.04414-1.33241a19.56315,19.56315,0,0,1,.10925-2.96982C435.67576,257.4132,428.87525,248.95949,420.07542,241.41925Z"/><path class="cls-3" d="M398.99987,267.01391c-1.366,4.69279-.51009,9.48877-.66157,14.238-1.1835,2.56241-3.49963.94054-5.24721,1.41921q-.03164-8.98053-.06332-17.961C395.0642,265.35959,397.902,263.9338,398.99987,267.01391Z"/><ellipse class="cls-4" cx="272.38193" cy="210.12073" rx="37.4677" ry="0.42766"/><path class="cls-4" d="M613.97876,374.4343c1.82-6.5998,1.33877-13.368,1.84767-20.05979.24988-3.28565,2.87353-5.46432,6.09145-6.37094,1.712-.48241,2.95743-.11646,2.2799,2.29445-.82163,2.92373-2.26453,5.48485-5.051,6.54213-2.56345.9726-2.86539,2.52871-2.777,4.8136C616.53974,366.05631,616.58576,370.47761,613.97876,374.4343Z"/><path class="cls-4" d="M132.64238,287.62955c-3.08-2.94984-3.50654-6.66239-3.38225-10.48483.088-2.70831.27705-5.28429-3.33878-5.91422-.63384-.11038-1.18076-.87-1.7124-1.38682-1.55512-1.51167-3.32589-3.90557-1.77571-5.33588,1.84772-1.70495,4.50916-.21866,6.1259,1.71075a8.35734,8.35734,0,0,1,2.10043,5.07533C130.86736,276.777,129.64025,282.41837,132.64238,287.62955Z"/><path class="cls-5" d="M29.69026,397.53776c8.43012-.81978,23.75529,6.665,26.80264,19.80619.24494,1.05637.42219,2.12837.6249,3.16233-1.07272.348-1.25535-.23851-1.38665-.86413-2.55871-12.19329-10.93823-18.118-22.36915-20.76014-1.21223-.28016-2.422-.57084-3.63313-.85695A1.6148,1.6148,0,0,0,29.69026,397.53776Z"/><path class="cls-4" d="M592.9436,341.26989c-2.22775,1.04572-4.11889.5157-4.67473-1.26533-1.01176-3.24208-3.29267-5.75235-4.47316-8.84367-.72483-1.89827-.46983-4.39259.97865-5.05973,1.613-.743,2.86127,1.53242,3.62416,3.0005a5.97591,5.97591,0,0,1,.80105,4.66448C587.99877,337.3422,588.14334,340.25025,592.9436,341.26989Z"/><path class="cls-4" d="M612.91237,330.05057c.44568-1.24348.8876-2.48828,1.33776-3.73016.97526-2.69052,1.19376-5.22188-.78448-7.69781a6.72791,6.72791,0,0,1-1.45964-5.60941c.16872-.84475.36443-1.83371,1.20281-2.18818,1.00417-.42448,1.52048.58955,2.1163,1.16039a4.87447,4.87447,0,0,1,1.70869,3.23545,31.25122,31.25122,0,0,1-3.26531,15.17221Z"/><path class="cls-2" d="M595.343,372.16655c-.02845-2.46047.4218-5.75527,2.76648-5.7437,2.33462.01147,2.60453,3.35113,2.6135,5.7459.009,2.39582-.28666,5.87133-2.44094,5.89346C595.54712,378.09029,595.43559,374.65269,595.343,372.16655Z"/><path class="cls-4" d="M598.567,355.6028c-6.29109-9.51844-3.06722-20.14282-3.38453-30.38882C597.49077,335.181,593.6321,345.87031,598.567,355.6028Z"/><path class="cls-2" d="M615.52651,349.115c-.70956.80044.15609,2.862-1.856,2.893-1.64986.02551-4.19556-4.35862-3.82226-6.71548.17-1.0737-.04483-2.75427,1.5773-2.98309C612.88474,342.10367,615.64737,346.72388,615.52651,349.115Z"/><path class="cls-4" d="M155.33637,309.56388c-.31736.73308-.48635,2.18544-1.2363,2.60822-1.14379.64483-1.86707-.816-2.5908-1.55972a6.17875,6.17875,0,0,1-1.56509-7.09276c.30139-.74177.74546-1.39785,1.6295-.83821C153.9605,304.19234,154.72829,306.65593,155.33637,309.56388Z"/><path class="cls-2" d="M496.15708,379.873c-5.45976,2.37552-10.9413,4.73275-14.94755,9.39718-1.56907,1.82686-3.011,3.76281-4.70025,5.45239,3.55353-7.9028,10.21244-12.23088,17.92246-15.34071Q495.29445,379.62735,496.15708,379.873Z"/><path class="cls-2" d="M624.7151,315.69928a7.20667,7.20667,0,0,1-4.46739,6.97845c-.81825.38621-1.42084.2819-1.56376-.75631a7.13825,7.13825,0,0,1,3.22789-7.33969c.6844-.47084,1.54364-1.20612,2.31916-.60829C624.6764,314.31675,624.62059,315.30956,624.7151,315.69928Z"/><path class="cls-2" d="M589.56739,354.68339c2.57561-.05112,6.2168,4.14521,5.83974,6.67588-.1302.87355-.38721,1.23035-1.39559,1.14283-2.42282-.21025-6.06977-3.9586-6.015-6.2851C588.0222,355.13416,588.49331,354.63213,589.56739,354.68339Z"/><path class="cls-2" d="M139.692,335.48627c-.18652,1.10584.20463,3.42374-1.52378,2.97179-2.74873-.71882-3.83721-3.32791-3.70875-6.17674.04927-1.09308-.64848-2.71659,1.2378-2.99575C137.33367,329.04345,139.64816,332.65042,139.692,335.48627Z"/><path class="cls-2" d="M160.014,258.05355c-2.14143-.12826-4.83654-.16178-4.8348-2.43889.00146-1.95352,2.6527-2.1078,4.51483-2.11863,2.09522-.01226,5.00466-.01912,5.00864,2.39966C164.70613,258.03041,161.79824,257.92575,160.014,258.05355Z"/><path class="cls-2" d="M375.72122,50.57037a156.87414,156.87414,0,0,1-18.74236-16.47749l.22847-.27152c3.43449.48705,5.01971,3.54613,7.27,5.53341,3.95218,3.49014,8.71447,6.19594,11.46343,10.95517Z"/><path class="cls-2" d="M130.67508,262.67482c-.38429-2.594,1.10564-4.20425,2.95-5.5935a.8.8,0,0,1,1.2212.38931,6.045,6.045,0,0,1-.08331,6.32009c-.74153,1.177-1.64144,3.02035-3.18416,2.55193C130.13534,265.90432,130.80628,263.96453,130.67508,262.67482Z"/><path class="cls-2" d="M353.87915,222.08664c-5.75524-4.32935-10.23357-9.94935-15.83415-14.98069,1.82787-.59581,2.29509.49284,2.90935,1.089,3.56616,3.46094,7.06246,6.994,10.64019,10.44273.82433.79463,1.39957,2.20794,3.00144,1.69887A1.3741,1.3741,0,0,1,353.87915,222.08664Z"/><path class="cls-2" d="M197.20581,417.53216c.81573-8.58029,5.12772-15.44355,10.78448-21.65833-4.69344,6.61817-8.71721,13.52854-9.84852,21.73067Q197.67391,417.56849,197.20581,417.53216Z"/><path class="cls-5" d="M441.005,290.88585q9.03611-5.68365,18.07265-11.36753c.75567-.07682,1.58325-.25721,1.41261.988-6.52413,3.82623-13.18259,7.43215-19.36078,11.82373Q441.06688,291.60743,441.005,290.88585Z"/><path class="cls-2" d="M393.02777,264.71005q.03163,8.98051.06341,17.96105-.8022.00451-1.60452.0091c.06075-6.12265.47962-12.24981-.2351-18.36194A1.26721,1.26721,0,0,1,393.02777,264.71005Z"/><path class="cls-4" d="M676.41805,231.72283c3.3215,2.093,6.90358,3.863,9.10845,7.34033q-.12105.15447-.248.304c-3.37667-2.04748-6.72781-4.12573-9.02144-7.47851Z"/><path class="cls-2" d="M478.40343,61.79031c-3.407-.687-5.27283-3.11-6.74181-5.97988l.10532-.12326c3.02541,1.12727,4.711,3.76185,6.752,5.99662Z"/><path class="cls-2" d="M388.4822,61.78665a12.57263,12.57263,0,0,1-6.07984-5.89766l.21131-.25031a12.40845,12.40845,0,0,1,6.04722,5.93683Z"/><path class="cls-2" d="M382.40236,55.889c-3.17455-.58443-4.67069-3.274-6.68041-5.31951l.21882-.25954c3.16531.6004,4.67019,3.27554,6.67217,5.32959Z"/><path class="cls-2" d="M388.66089,61.57551c3.21568.52645,4.68049,3.25975,6.69253,5.3033l-.207.24514c-3.1531-.61827-4.68868-3.25189-6.66367-5.338Z"/><path class="cls-4" d="M685.5265,239.06316c2.82339,1.03154,5.33762,2.45847,6.76322,5.27895a3.17581,3.17581,0,0,0-.26241.26612,20.773,20.773,0,0,1-6.74876-5.241Q685.4055,239.2176,685.5265,239.06316Z"/><path class="cls-2" d="M447.0313,33.96236c2.62594.799,3.96078,3.0024,5.43,5.06511a7.63265,7.63265,0,0,1-5.531-4.94762Z"/><path class="cls-2" d="M459.665,45.30846c-3.00428-.18542-4.123-2.70329-5.57926-4.816,2.5048.78923,4.09309,2.75806,5.69473,4.70952Z"/><path class="cls-2" d="M465.66085,50.5532c-3.07949-.515-4.79925-2.581-5.994-5.24639l.11364-.10487c2.72768.91546,4.22913,3.23165,5.99647,5.244Z"/><path class="cls-2" d="M306.01278,53.39979a18.42925,18.42925,0,0,1,6.55071-5.4573c-1.992,3.10455-3.42717,5.18564-6.32371,5.66794Z"/><path class="cls-2" d="M471.66162,55.81043c-3.055-.55087-4.83356-2.55543-5.99885-5.2589l.11418-.10563c2.71808.92386,4.23006,3.224,5.98962,5.24173Z"/><path class="cls-2" d="M306.23978,53.61043a9.694,9.694,0,0,1-6.4864,5.42307c2.334-2.59228,3.74568-4.70465,6.26013-5.633Z"/><path class="cls-2" d="M446.93029,34.07985c-3.04911-.54951-4.81361-2.5651-5.9941-5.24719l.09772-.11358c2.72183.9222,4.23833,3.22133,5.997,5.24371Z"/><path class="cls-2" d="M287.284,69.87833a16.90409,16.90409,0,0,1,5.63544-4.833c-1.089,2.49258-2.54762,4.56384-5.43543,5.06824Z"/><path class="cls-2" d="M440.93619,28.83266c-2.9895-.20049-4.12373-2.70214-5.58657-4.80817,2.49551.791,4.09555,2.73552,5.68392,4.695Z"/><path class="cls-2" d="M484.40339,67.04809c-3.0525-.55386-4.82185-2.56876-5.99813-5.25942l.11364-.10488c2.73482.90456,4.22493,3.22982,5.98989,5.24139Z"/><path class="cls-2" d="M294.03931,63.93331c1.5999-1.92324,2.859-3.4004,4.93842-3.97758C298.04941,61.79587,297.13833,63.65486,294.03931,63.93331Z"/><path class="cls-4" d="M237.16024,459.31644c2.41023-2.04834,3.553-1.85785,4.3941.73071C240.04735,460.05232,238.395,460.94187,237.16024,459.31644Z"/><path class="cls-4" d="M127.26424,337.18115c1.9377.46572,3.11055,1.75072,4.38,3.75805C128.92123,340.59415,128.25262,338.68275,127.26424,337.18115Z"/><path class="cls-3" d="M358.56019,208.58976c-.64582-1.75387-2.91973-2.42632-3.0201-4.54245a4.44648,4.44648,0,0,1,3.75514,4.48687l-.36489.06151Z"/><path class="cls-4" d="M220.61626,459.27113q.00363-.53211.007-1.06268,2.50685.36888,5.01418.73473l-.0033.328Z"/><path class="cls-4" d="M150.21867,329.20135a3.31484,3.31484,0,0,1-2.777,2.84517,3.027,3.027,0,0,1,2.7108-2.91075Z"/><path class="cls-4" d="M641.013,142.01891c-1.62864-.08439-2.71836-.73757-2.94472-2.83905a5.82508,5.82508,0,0,1,3.113,2.63968Z"/><path class="cls-4" d="M135.17221,290.99307a1.87031,1.87031,0,0,1-1.95875-1.97217c1.4293-.05359,1.8043.8335,2.00482,1.926Z"/><path class="cls-4" d="M633.65822,133.59766a2.60246,2.60246,0,0,1,1.534,2.24115l-.1528.15426a2.28088,2.28088,0,0,1-2.09416-1.63256Q633.30143,133.97933,633.65822,133.59766Z"/><path class="cls-2" d="M633.65822,133.59766q-.3567.38153-.71294.76285-.444-.6954-.88971-1.38957l.22307-.24061Q632.97049,133.1614,633.65822,133.59766Z"/><path class="cls-2" d="M433.19776,273.08095q-.0221.66621-.04414,1.33241-1.0237-.61785-2.04769-1.23547Q432.1516,273.12967,433.19776,273.08095Z"/><path class="cls-4" d="M154.71049,323.94992a1.4601,1.4601,0,0,1-1.449,1.56512l-.13285-.13375a1.483,1.483,0,0,1,1.51815-1.48637Z"/><path class="cls-4" d="M155.408,322.41293a1.48411,1.48411,0,0,1,.75809-1.49154l.03724.03187c.00091.62393-.07242,1.21138-.738,1.50933Z"/><path class="cls-2" d="M608.91,384.61884q.13134-.52443.26278-1.04882l.30788.19328-.58292.84333Z"/><path class="cls-2" d="M431.12656,273.20336q-.77665-.32785-1.55383-.65462C430.35562,272.13766,430.93987,272.19821,431.12656,273.20336Z"/><path class="cls-4" d="M514.56282,458.73366c-.36342-.04988-.87113.20106-.9565-.39521-.00942-.06589.53223-.21057.81789-.31884Q514.48116,458.3788,514.56282,458.73366Z"/><path class="cls-4" d="M155.46529,322.46259a1.46317,1.46317,0,0,1-.75521,1.48706l-.06332-.05473a1.46579,1.46579,0,0,1,.76153-1.48176Z"/><path class="cls-2" d="M608.8977,384.60663a1.13745,1.13745,0,0,1-.11693.30664c-.03642.04883-.14612.043-.2228.06182q.17595-.1782.3519-.3563Z"/><path class="cls-2" d="M606.63161,388.33249l.389-.3467q-.16743.20014-.33442.4007Z"/><path class="cls-4" d="M150.98339,328.46456q-.38291.36791-.76527.73633l-.06565-.06512q.36177-.38923.72488-.777Z"/><path class="cls-4" d="M635.19224,135.83883q.14617.23493.29252.46984c-.14722-.10647-.29453-.213-.44349-.31752Z"/><path class="cls-4" d="M138.20682,293.94611q.37378.378.74757.75609l-.02466.02524-.75837-.74607Z"/><path class="cls-4" d="M138.17136,293.98137l-.75493-.74456.04442-.04413q.37282.377.74578.75362Z"/><path class="cls-4" d="M137.41643,293.23681q-.37516-.37429-.74986-.7489l.04616-.04555q.37385.37539.74793.7506Z"/><path class="cls-4" d="M138.95439,294.7022l.31209.38917c-.07828-.02-.18889-.01532-.22741-.06566a1.029,1.029,0,0,1-.10916-.2985Z"/><path class="cls-4" d="M135.96351,291.693q.3744.375.749.74964l-.04593.04527q-.37488-.3745-.74835-.75Z"/><path class="cls-5" d="M289.05162,265.11637l-.05865.05217Z"/><path class="cls-4" d="M150.87735,328.35875l.407-.33042q-.15109.21758-.30161.43564Z"/><path class="cls-4" d="M135.21828,290.94694q.37233.3734.745.74643l-.045.04449q-.3731-.37251-.7456-.74529Z"/><path class="cls-2" d="M606.64552,341.14977a1.09016,1.09016,0,0,1,.13093-.30773c.04108-.04884.15637-.03521.23835-.04971q-.17417.18965-.348.37948Z"/><path class="cls-4" d="M153.26146,325.51509l-.42436.31587q.14644-.22435.2922-.44912Z"/><path class="cls-6" d="M391.48666,282.6802q.80232-.00461,1.60452-.0091c1.74749-.47867,4.06362,1.1432,5.24712-1.41921a28.51943,28.51943,0,0,0,13.61455-2.28937c-.51632,6.55956,2.56889,9.08725,8.62228,7.364,3.54841-1.01018,6.57295.63043,9.0955,2.99086a12.67085,12.67085,0,0,1,2.80056,3.93679c11.84423,26.16176,24.05888,52.16778,35.29691,78.58849,10.84156,25.48845-2.11842,53.73948-28.18006,63.42949-2.46651-.8051-4.89875-1.74541-7.407-2.3901-8.06576-2.07295-12.46174-7.58711-14.63853-15.26367,5.1258-.7692,4.93563-.74337,4.24428-5.82962-1.45254-10.6857-2.536-21.42225-4.04015-32.1-2.57694-18.293-5.55309-36.4897-10.24021-54.42542-3.13612-12.00051-10.849-17.53913-22.28019-19.31829-10.046-1.56356-20.1353-2.86232-30.15532-4.572-4.10091-.69975-8.40741-1.31828-11.61764-4.51166,3.2913-3.58063,4.54256-8.04168,5.46187-12.64593q.35958-.2568.71943-.5136Q370.56065,283.191,391.48666,282.6802Z"/><path class="cls-6" d="M476.27633,434.59355c.59738,1.25111,1.46979,2.39276,1.5364,3.85554,2.61716,9.48881,9.0294,15.45178,18.78143,19.42328H247.75454c13.349-6.8485,20.69465-16.87291,18.944-32.0737q-.22427-.55709-.44751-1.11425c.22581-2.19893-.66083-4.15788-1.33059-6.16366,5.42921.46659,10.01522,2.86945,14.20529,6.179q-.00309.448.44737.39119c4.73319,3.17673,8.0417,7.78885,11.63365,12.02863,5.8166,6.86564,12.71766,9.86971,21.86824,9.80785q64.76085-.43809,129.52637-.03791c8.65362.04047,16.48066-1.63531,23.67858-6.47647C469.47249,438.26586,472.93589,436.52109,476.27633,434.59355Z"/><path class="cls-6" d="M372.10662,336.59229a24.60889,24.60889,0,0,1-2.432,6.23111q-14.11647,29.03518-28.22416,58.07454a24.2453,24.2453,0,0,0-.885,2.43346c-2.33622,4.10237-4.58662,8.25718-7.04741,12.28351-1.10852,1.81377-.36717,2.99049.70333,4.318,5.14552,6.38044,9.96911,13.04974,16.48007,18.19393-5.2447.0129-10.48995.07719-15.734.02721-8.82156-.084-13.1271-4.38989-13.13062-13.09917-.01-24.71467.05462-49.42956-.07164-74.14359-.01451-2.83955.69743-3.68022,3.485-3.43042a41.74975,41.74975,0,0,0,7.84914-.13544c7.29206-.73185,10.74476-3.74589,12.53466-10.66234q13.249-.03107,26.4984-.06378Z"/><path class="cls-6" d="M353.53357,412.404c.12361.01783.24878.02853.37065.05455,2.72394.58255,4.53346,4.79768,7.388,3.04573,2.06694-1.26859,2.97367-4.46777,4.32932-6.845q9.63222-16.89182,19.23594-33.79981a22.74728,22.74728,0,0,1,1.49161-2.01571c1.55219,1.97419,1.62219,4.24422,2.07267,6.28767,2.86154,12.98129,5.68694,25.97227,8.30891,39.00341.73864,3.67126,3.35178,2.00312,5.26377,2.44909q.78779,8.67476,1.57566,17.34942-19.36044.121-38.71616.24289c.17672-2.58256-2.18159-2.82542-3.645-3.51382-5.8871-2.76955-8.75935-7.02263-7.92307-13.67971A84.89877,84.89877,0,0,0,353.53357,412.404Z"/><path class="cls-6" d="M247.50786,349.65a104.65389,104.65389,0,0,0-12.45094,4.83988c-1.23094.62435-1.81432-.19616-2.40488-1.04013q-4.60407-6.57922-9.21491-13.15382a3.15831,3.15831,0,0,1-.37408-3.76815,5.098,5.098,0,0,0,.47665-2.15014c.50584-6.5719.49664-6.57263,7.01346-6.57263,11.97516,0,23.95306.14171,35.92365-.092,3.31161-.06461,3.45238,1.30983,3.54067,3.906.09749,2.8674-.60684,3.96414-3.66524,3.73519a112.81437,112.81437,0,0,0-11.59518-.04852c-6.61463.18743-10.744,4.453-11.02538,10.64345C243.59754,348.89917,244.5932,349.9061,247.50786,349.65Z"/><path class="cls-3" d="M353.53357,412.404a84.89877,84.89877,0,0,1-.24763,8.57873c-.83628,6.65708,2.036,10.91016,7.92307,13.67971,1.46339.6884,3.8217.93126,3.645,3.51382-4.72578.05835-9.448.47661-14.15977-.04938-6.50369-5.14424-11.32728-11.81354-16.4728-18.194-1.0705-1.32752-1.81185-2.50424-.70333-4.318,2.46079-4.02633,4.71119-8.18114,7.04741-12.28351C344.83956,406.42505,349.9961,408.25857,353.53357,412.404Z"/><path class="cls-3" d="M403.57015,437.93339q-.78786-8.67469-1.57566-17.34942c4.97378-2.08329,10.35852-2.01438,15.54823-2.96571,2.1766,7.67665,6.57258,13.19081,14.63834,15.26376,2.50823.64469,4.94047,1.585,7.407,2.3901a47.51611,47.51611,0,0,1-18.59637,3.00092C415.18491,438.1932,409.36145,438.79107,403.57015,437.93339Z"/><path class="cls-2" d="M241.74584,289.66427q4.31024.01482,8.61913.02931.10911,16.38035.22046,32.76133a13.73393,13.73393,0,0,1-8.963.01271Q241.68418,306.066,241.74584,289.66427Z"/><path class="cls-5" d="M264.92041,418.52076c.66976,2.00578,1.5564,3.96473,1.33095,6.15991-2.113-.72069-3.69937-5.064-6.51476-.9496q-.4962.11579-.99058.23325c-.01034-.873-.05471-2.056-1.21338-1.75017a8.0395,8.0395,0,0,1-5.8816-.46115l-.14575,1.00758c-1.34161.54227-2.71236,1.33758-4.01893,0-.99543-1.01919-1.76565-.42375-2.52186.25209-1.04324.93244.10471,1.53827.42408,2.21758,2.18877,4.65547,1.39486,8.92538-2.22226,11.69524-3.55774,2.72446-7.98789,2.37232-11.86349-.94287l.753-.597c.41585.26045.8209.54039,1.24919.77857,4.36442,2.42747,8.93342,1.33009,11.16272-2.67452,2.18022-3.91631.81848-8.06559-3.45041-10.67952a16.36742,16.36742,0,0,1-1.94471-1.638c.96694-.92842.72218-2.12924.73627-3.27184,7.85843-.71859,15.73246-.18391,23.59875-.25273C263.90933,417.64318,264.416,418.21631,264.92041,418.52076Z"/><path class="cls-2" d="M269.60685,399.23845c-16.42028-18.69239-40.1581-20.59346-59.16474-4.74263a2.87226,2.87226,0,0,1-1.63522.76354c2.36271-3.26736,5.61613-5.472,9.08049-7.412a41.53645,41.53645,0,0,1,50.8229,8.83475,19.81151,19.81151,0,0,1,1.43182,2.13893Q269.86631,399.01921,269.60685,399.23845Z"/><path class="cls-3" d="M239.80891,417.90035c-.01409,1.1426.23067,2.34342-.73361,3.273a6.56058,6.56058,0,0,1-4.56306,1.51747l-.91089-.85069c-3.20515-1.49991-6.15531-2.784-10.11719-1.623-2.29125.67149-5.63081-.17655-7.96863-2.11977,6.372-.91137,12.76848-.03356,19.14851-.28506C236.37515,417.74483,238.09377,417.86582,239.80891,417.90035Zm-1.44618,1.33749-.16936.22739.27938.034Z"/><path class="cls-2" d="M270.1421,398.82106c5.55172,5.99813,9.71813,17.24036,8.31975,22.44921l-.23976.05154c1.56248.41885-3.66607-15.0141-6.4557-19.038-.709-1.02271-1.439-2.03093-2.1594-3.04559Q269.86623,399.01938,270.1421,398.82106Z"/><path class="cls-6" d="M422.2372,277.47061c2.33773-.03466,4.17379,1.49466,6.32962,2.02878,1.447.3585,2.8384.64611,2.70637-1.62044l.7478-.42617q.698.38616,1.39586.77259c-.05311,1.1068-.106,2.21338-.16053,3.35219-2.29372-.34048-4.4872-1.05738-6.607-.88238C423.95733,280.91736,422.77593,279.82053,422.2372,277.47061Z"/><path class="cls-3" d="M213.61227,417.76312c.14072.60839-.116,1.00671-.72085.9143-.39481-.06032-.48841-.48411-.25683-.87589C212.96379,417.78768,213.288,417.77542,213.61227,417.76312Z"/><path class="cls-2" d="M279.57307,425.091q-.45015.05746-.44737-.39119A.46814.46814,0,0,1,279.57307,425.091Z"/><path class="cls-6" d="M674.116,365.18646q-.0376-36.64743-.11519-73.29473c-.00879-2.37044.63361-3.28433,3.14994-3.27555q33.67248.11729,67.34523-.013c2.9771-.01422,3.091,1.43379,3.08644,3.68369q-.06972,34.21754-.02864,68.43532c-7.42116-2.02169-14.66775-4.64271-22.42087-5.43665C707.09508,353.43845,689.84165,355.29027,674.116,365.18646Z"/><path class="cls-5" d="M386.33135,368.02687a4.68182,4.68182,0,0,1-1.68088-3.05642c-1.55877-7.51615-3.501-14.96069-4.81823-22.51574-.64693-3.71059-1.73555-5.981-5.91574-5.48847a5.919,5.919,0,0,1-1.80984-.3739l.02567.027c5.2097-1.91735,7.36617-.93465,8.4461,3.90592q2.5137,11.26716,4.96381,22.54844c.35519,1.64687.5116,3.33659.75956,5.00656Z"/><path class="cls-5" d="M386.3018,368.08024l.35852.51359c-.11007-.1877-.22014-.37545-.32961-.565Z"/><path class="cls-2" d="M326.854,237.57647c3.54579,13.03314,4.053,26.7449,8.36769,39.6352C329.79008,264.59911,329.31956,250.87208,326.854,237.57647Z"/><path class="cls-2" d="M349.6346,283.70181q-.35979.2568-.71943.5136a12.72678,12.72678,0,0,1-8.86063-2.42308A62.70717,62.70717,0,0,0,349.6346,283.70181Z"/><path class="cls-2" d="M338.58067,281.09588a13.44036,13.44036,0,0,1-1.36014-1.0213c-.40734-.389-.951-.75736-.76587-1.4979.74272-.31935,1.05221.34185,1.45045.6934a13.20217,13.20217,0,0,1,1.17472,1.3352Z"/><path class="cls-3" d="M251.50529,422.76058l.14575-1.00758a8.0395,8.0395,0,0,0,5.8816.46115c1.15867-.30582,1.203.87712,1.21338,1.75017C256.512,425.82592,252.45607,425.15242,251.50529,422.76058Z"/><path class="cls-3" d="M259.7366,423.73107c2.81539-4.11435,4.4018.22891,6.51476.9496.14864.37518.29764.74661.44715,1.118-2.40114,1.04182-4.51383-1.08563-6.86245-.62521Q259.7863,424.45225,259.7366,423.73107Z"/><path class="cls-5" d="M231.30283,435.98262c-3.42241-4.32657-3.50444-7.675-.28853-11.77609l.65493.55132c-2.6103,3.64214-1.93725,7.16492.38662,10.62777Z"/><path class="cls-5" d="M231.76123,423.43719q.61306-.55352,1.22609-1.10671.25047.30954.50108.6184l-1.21392,1.07589Q232.01789,423.73094,231.76123,423.43719Z"/><path class="cls-5" d="M233.60135,421.84016c.30363.28354.60726.56714.90742.85224-.34247.08656-.68142.17152-1.02037.25648q-.25061-.309-.50108-.6184Q233.29434,422.085,233.60135,421.84016Z"/><path class="cls-5" d="M231.0143,424.20653q.37371-.38443.74716-.76907.2563.29336.513.58731-.30255.36654-.6052.73308Z"/><path class="cls-6" d="M636.5129,229.51869c-11.11157-.00013-22.224-.07288-33.33408.05323-2.63546.02995-3.39762-.812-3.38664-3.4098q.13312-31.44634-.00046-62.8934c-.01116-2.61012.76756-3.4208,3.39936-3.41021q33.5215.13481,67.04366.00425c2.4908-.009,3.1741.817,3.16522,3.23019q-.11625,31.6337.01455,63.26771c.01473,2.8465-1.18149,3.21789-3.56726,3.19836C658.7365,229.46835,647.62447,229.51888,636.5129,229.51869Z"/><path class="cls-6" d="M685.27855,239.36719a20.773,20.773,0,0,0,6.74876,5.241c5.95759,5.68665,12.788,10.289,19.22646,15.37419,10.35408,8.17771,20.878,16.1406,31.325,24.20093.86866.67021,1.6989,1.39021,2.66217,2.18164-1.5558,1.24814-2.83528.77744-3.98933.77936-21.23462.03567-42.46942-.012-63.70368.07042a11.14272,11.14272,0,0,1-7.44367-2.68481c-13.58673-10.71424-27.34465-21.21145-41.031-31.79985-9.04358-6.99651-18.06391-14.02307-27.97094-21.71658h4.46255q31.28991,0,62.57965-.02383a27.47405,27.47405,0,0,1,8.11462.89688C678.55074,235.24146,681.90188,237.31971,685.27855,239.36719Z"/><path class="cls-2" d="M272.73254,306.03766a31.19852,31.19852,0,0,0,4.85022-.04156c3.88616-.61872,4.92043.97753,4.66992,4.70513-.328,4.88081-.07883,4.89814-5.16382,4.899-3.86059.00064-7.723-.07234-11.581.02913-1.9517.05135-2.86662-.367-2.93584-2.63127-.21286-6.96359-.31927-6.96034,6.798-6.96039Z"/><path class="cls-1" d="M288.07591,250.57929c1.49752,3.22081-2.32767,3.85636-2.7991,3.45608-2.33521-1.983-2.28718.76536-2.80015,1.3421-1.57941,1.77587,2.09421.70318,1.34971,2.28348-1.284,1.36158-3.58537-.73043-4.77181,1.26638-.02676.045-.34233-.01358-.34288-.03031-.236-6.599-6.53411-.70894-8.5887-3.98472a7.88477,7.88477,0,0,0-5.08893.90739c-.99607.70894-.84808-.40861-1.08894-.83711-.40281-.71666-1.41476-1.357-1.75243-.98668-2.64245,2.89872-3.92514.81009-5.44869-1.2015-.41406-.54665-.99214-.98123-2.20519-.05427-3.40728,2.60369-6.4718,1.6027-8.38522-2.16061Q267.11477,250.57944,288.07591,250.57929Z"/><path class="cls-6" d="M400.6048,133.77448c0-19.6558.04927-38.98733-.056-58.318-.01492-2.73731,1.00193-3.29775,3.49039-3.29133q40.80453.10526,81.60917-.01159c2.73419-.00923,3.34318.97509,3.30595,3.47908-.12435,8.35474-.18711,16.716.02113,25.06735.08473,3.39409-.88138,4.54879-4.4146,4.50663-14.72238-.17575-29.45125.1276-44.17208-.10444-16.60093-.26166-32.04261,10.4303-38.23965,26.21751A3.77837,3.77837,0,0,1,400.6048,133.77448Z"/><path class="cls-6" d="M454.43463,106.59177h2.92211q38.76369-.00008,77.52748.00526c3.9886.0016,4.2543.33426,2.50544,3.5914-7.78523,14.49956-16.91344,27.91828-30.67749,37.54289a65.75976,65.75976,0,0,1-20.90441,9.73779c-4.22447,1.12379-4.18366.96409-4.29529-3.37617-.147-5.71336.59217-11.46672-.84048-17.1273-3.20749-12.67266-10.35115-22.19714-22.22718-27.97832-.897-.43664-1.79506-.8718-2.682-1.328A14.88071,14.88071,0,0,1,454.43463,106.59177Z"/><path class="cls-2" d="M250.0612,282.753a32.54213,32.54213,0,0,1-8.35379-.05913c-.16075-8.02855.39916-16.06666-.31749-24.08762q-.11679-.53877-.2307-1.07841l-.08665.07,2.09151-.29822-.07187-.06544c.12851.36851.143.88073.72547.74438.083-.01948.06016-.4906.08628-.75265l-.04.06932c1.77983.13708.097-1.66023,1.14764-1.96316.95362.98055.74217,3.98032,3.52919,2.01926.84424-.59407,1.62507.016,1.76277,1.11193a2.27449,2.27449,0,0,0-.07864,2.14364l.00293.02561Z"/><path class="cls-2" d="M222.11048,273.64654c-1.49431,0-2.98886.01655-4.4829-.00293-5.90274-.07687-4.96815.73793-5.32558-5.08777-.21872-3.5649.76184-4.86018,4.46538-4.55a111.46611,111.46611,0,0,0,12.32056.04508c2.02371-.05537,2.81323.51323,2.877,2.70009.20125,6.89834.29837,6.8955-6.49234,6.89555Z"/><path class="cls-5" d="M241.15922,257.52779q.11466.53946.2307,1.07841c-.80164.56165-1.19155.30659-1.23858-.62672l-.03907.0486Q240.63565,257.77787,241.15922,257.52779Z"/><polygon class="cls-5" points="273.092 262.462 272.966 262.677 273.124 262.494 273.092 262.462"/><path class="cls-5" d="M250.22782,260.63242l-.00293-.02561Z"/><path class="cls-6" d="M540.68728,239.90621c0,15.72934-.08674,31.4596.07246,47.18734.03212,3.17335-.93445,4.06688-4.0122,3.923-5.1096-.23883-10.24638-.23741-15.35617-.0005-3.07482.14262-4.0305-.75151-4.01458-3.92422.12681-25.21628.07045-50.43348.07054-75.6504,0-6.36666.11355-12.73627-.05334-19.09854-.0699-2.66254.85256-3.45056,3.43605-3.37178,5.36561.16361,10.74559.20054,16.10781-.01106,2.92733-.11553,3.8455.74808,3.81759,3.75871C540.60932,208.44673,540.68728,224.17683,540.68728,239.90621Z"/><path class="cls-6" d="M542.20145,239.64594c-.00009-15.48.083-30.96095-.06881-46.43953-.03092-3.16237.60369-4.47808,4.0822-4.26625a139.45006,139.45006,0,0,0,15.35434.01228c3.19084-.15821,3.95136.96734,3.93992,4.02269-.10687,28.58776-.02718,57.17621-.10522,85.76416-.0108,3.93688,1.76057,9.01006-.81249,11.51078-2.3757,2.309-7.37715.54762-11.2189.6837-2.61962.09287-5.25783-.14322-7.86455.06209-2.68258.21126-3.373-.8399-3.35691-3.412C542.2514,271.60509,542.20154,255.62536,542.20145,239.64594Z"/><path class="cls-2" d="M351.10174,185.2874c2.579,2.64059,2.8825,5.45268.65484,7.7258a5.28246,5.28246,0,0,1-7.39051.71426c-2.593-1.7899-2.86-4.7434-.85078-7.69562q.16709.14832.33776.29265c-.7145,2.62779-.98139,5.1871,1.82448,6.814a3.86092,3.86092,0,0,0,4.76631-.54894c2.3687-2.06458,1.51431-4.384.50648-6.71123a1.72,1.72,0,0,1-.07206-.36021Z"/><path class="cls-2" d="M344.265,185.27953c2.28155-2.24531,4.56036-2.21662,6.83664.008.00014-.00016-.22334.23052-.21936.22641a10.65431,10.65431,0,0,0-6.353.06248Q344.399,185.42629,344.265,185.27953Z"/><path class="cls-2" d="M343.51529,186.03184q.3757-.37525.75059-.75137c.08847.09689.17658.19587.2603.29228-.2264.24813-.44975.49995-.67313.75174Q343.68238,186.18018,343.51529,186.03184Z"/><path class="cls-3" d="M241.15922,257.52779q-.52353.25008-1.047.50029c-.16872-.85471-.20911-1.88126.892-1.825.72391.03695.12484.89953.0683,1.3946Z"/><path class="cls-2" d="M243.16408,257.29953l.32047-.92724q.18925.46161.379.923l.04054-.0695-.81185.00827Z"/><path class="cls-3" d="M211.34207,253.178c-.19027.11569-.36786.30857-.54207.3055-.17165-.00288-.33987-.20426-.50959-.31857.17567-.1097.35089-.3039.52715-.30481C210.98729,252.85915,211.15807,253.058,211.34207,253.178Z"/><path class="cls-3" d="M260.39346,260.23382l-.543-.33833c.537-.34843.50209.03219.48978.384Z"/><path class="cls-3" d="M223.46463,254.69858l-.22431.199c-.05942-.08043-.17109-.16626-.1635-.23983.00759-.07325.13477-.13421.20953-.20055Z"/><path class="cls-5" d="M432.021,277.45278l-.7478.42617q-7.03358-2.7544-14.06709-5.5089l.40323-1.00328C422.54266,273.05521,427.60863,274.395,432.021,277.45278Z"/><path class="cls-2" d="M511.4902,435.5334c-2.67133,1.13707-5.15362,2.871-8.37621,1.56905a7.77551,7.77551,0,0,1-4.85588-5.25421c-.52784-1.83915-1.10793-3.90291,2.196-4.12235A7.05733,7.05733,0,0,0,505.005,425.818c1.869-2.18969,3.806-3.15314,6.07727-1.32775a6.36837,6.36837,0,0,1,1.94127,7.41728c-.42793,1.262-1.05339,2.4571-1.5892,3.68265Z"/><path class="cls-6" d="M238.48807,87.95322c11.60584,0,23.2136.11383,34.81632-.07509,3.14217-.05112,3.799,1.119,3.66923,3.90152-.116,2.48657.23222,4.45972-3.52786,4.43333q-35.1902-.247-70.38273.00426c-3.87642.029-3.273-2.111-3.44543-4.48034-.20591-2.8283.5725-3.90957,3.67971-3.85957C215.02493,88.06618,226.75739,87.95322,238.48807,87.95322Z"/><path class="cls-6" d="M342.01036,65.74617c0,3.74573-.1,7.495.03518,11.23588.09031,2.49866-1.00367,3.10293-3.19029,2.54583-5.23281-1.33331-11.20682-6.35089-10.38976-15.66151.51325-5.84945,5.81948-11.67656,11.668-12.40107,2.15268-.26668,1.85532,1.0964,1.86479,2.29465C342.03,57.75514,342.01031,61.75074,342.01036,65.74617Z"/><path class="cls-6" d="M343.52343,65.08927c-.00037-3.73041.05307-7.46191-.02264-11.19079-.03857-1.89885.2829-2.55012,2.52392-2.09458,9.617,1.95482,14.23836,14.88556,7.84438,22.457-1.92933,2.28462-4.09546,4.26934-7.17573,5.09271-2.27972.60939-3.26216.18535-3.197-2.32767C343.59937,73.04946,343.5238,69.06838,343.52343,65.08927Z"/><path class="cls-2" d="M241.73967,284.41806q4.11671-.021,8.23488-.0417.04976,1.81227.0974,3.62371a32.58427,32.58427,0,0,1-8.36124-.06512Q241.72546,286.17667,241.73967,284.41806Z"/><path class="cls-2" d="M231.66923,424.75785q.30263-.36654.6052-.73308.607-.53795,1.214-1.07589c.33895-.085.6779-.16992,1.02037-.25648a6.57258,6.57258,0,0,0,4.56653-1.519,16.237,16.237,0,0,0,1.942,1.63673c4.26889,2.61393,5.63063,6.76321,3.45041,10.67952-2.2293,4.00461-6.7983,5.102-11.16272,2.67452-.42829-.23818-.83334-.51812-1.24919-.77862C229.732,431.92277,229.05893,428.4,231.66923,424.75785Z"/><polygon class="cls-5" points="238.363 419.238 238.473 419.499 238.193 419.465 238.363 419.238"/><path class="cls-5" d="M243.09221,257.23409l.81185-.00827c-.02622.262-.00334.73317-.08638.75265C243.23522,258.11482,243.22072,257.6026,243.09221,257.23409Z"/><path class="cls-3" d="M343.85305,186.32449c.22338-.25179.44673-.50361.67313-.75174a10.69383,10.69383,0,0,1,6.35606-.05878,1.49108,1.49108,0,0,0,.06808.36432c1.00783,2.32723,1.86222,4.64665-.50648,6.71123a3.86092,3.86092,0,0,1-4.76631.54894C342.87166,191.51159,343.13855,188.95228,343.85305,186.32449Z"/></g></g></svg>