<?xml version="1.0" standalone="no"?>
<!DOCTYPE svg PUBLIC "-//W3C//DTD SVG 20010904//EN"
 "http://www.w3.org/TR/2001/REC-SVG-20010904/DTD/svg10.dtd">
<svg version="1.0" xmlns="http://www.w3.org/2000/svg"
 width="354.000000pt" height="354.000000pt" viewBox="0 0 354.000000 354.000000"
 preserveAspectRatio="xMidYMid meet">
<metadata>
Created by potrace 1.14, written by Peter Selinger 2001-2017
</metadata>
<g transform="translate(0.000000,354.000000) scale(0.100000,-0.100000)"
fill="#000000" stroke="none">
<path d="M397 3399 c-115 -27 -223 -127 -257 -237 -19 -62 -20 -100 -20 -1391
0 -1441 -2 -1391 55 -1480 49 -78 123 -133 212 -156 50 -13 240 -15 1388 -15
884 0 1344 4 1370 11 132 34 237 141 264 269 8 36 11 452 11 1376 0 1314 0
1325 -21 1386 -37 110 -121 194 -233 231 -44 15 -172 17 -1390 16 -743 -1
-1358 -5 -1379 -10z"/>
</g>
</svg>
